<svg xmlns="http://www.w3.org/2000/svg" xmlns:xlink="http://www.w3.org/1999/xlink" width="1820" zoomAndPan="magnify" viewBox="0 0 1365 305.25" height="407" preserveAspectRatio="xMidYMid meet" version="1.2"><defs><clipPath id="03c7e7f452"><path d="M 1.671875 18.28125 L 339.09375 18.28125 L 339.09375 148 L 1.671875 148 Z M 1.671875 18.28125 "/></clipPath><clipPath id="248593f45e"><path d="M 850 95 L 997 95 L 997 304.5 L 850 304.5 Z M 850 95 "/></clipPath></defs><g id="0c191f41eb"><g clip-rule="nonzero" clip-path="url(#03c7e7f452)"><path style=" stroke:none;fill-rule:nonzero;fill:#41bbdd;fill-opacity:1;" d="M 170.382812 50.917969 L 296.480469 147.03125 L 339.109375 147.03125 L 170.382812 18.421875 L 1.65625 147.03125 L 44.285156 147.03125 Z M 170.382812 50.917969 "/></g><path style=" stroke:none;fill-rule:nonzero;fill:#41bbdd;fill-opacity:1;" d="M 272.078125 147.03125 L 272.078125 201.433594 L 208.648438 201.433594 L 208.648438 147.03125 L 184.308594 147.03125 L 184.308594 276.109375 L 208.648438 276.109375 L 208.648438 223.925781 L 272.078125 223.925781 L 272.078125 276.109375 L 296.230469 276.109375 L 296.230469 147.03125 Z M 272.078125 147.03125 "/><path style=" stroke:none;fill-rule:nonzero;fill:#41bbdd;fill-opacity:1;" d="M 108.890625 223 L 141.890625 223 L 141.890625 245.871094 C 131.75 253.980469 122.898438 256.191406 112.761719 256.191406 C 86.261719 256.191406 73.230469 241.222656 69.492188 224.070312 L 69.492188 147.03125 L 44.535156 147.03125 L 44.535156 211.921875 C 44.535156 212.296875 44.535156 212.671875 44.535156 213.046875 C 44.535156 213.421875 44.535156 213.804688 44.535156 214.191406 L 44.535156 214.867188 C 45.234375 248.097656 65.101562 278.871094 112.726562 278.871094 C 135.40625 278.871094 151.453125 270.203125 164.167969 255.632812 L 164.167969 201.214844 L 108.890625 201.214844 Z M 108.890625 223 "/><path style=" stroke:none;fill-rule:nonzero;fill:#41bbdd;fill-opacity:1;" d="M 152.175781 84.101562 L 168.296875 84.101562 L 168.296875 100.222656 L 152.175781 100.222656 Z M 152.175781 84.101562 "/><path style=" stroke:none;fill-rule:nonzero;fill:#41bbdd;fill-opacity:1;" d="M 173.703125 84.101562 L 189.824219 84.101562 L 189.824219 100.222656 L 173.703125 100.222656 Z M 173.703125 84.101562 "/><path style=" stroke:none;fill-rule:nonzero;fill:#41bbdd;fill-opacity:1;" d="M 152.175781 84.101562 L 168.296875 84.101562 L 168.296875 100.222656 L 152.175781 100.222656 Z M 152.175781 84.101562 "/><path style=" stroke:none;fill-rule:nonzero;fill:#41bbdd;fill-opacity:1;" d="M 173.703125 84.101562 L 189.824219 84.101562 L 189.824219 100.222656 L 173.703125 100.222656 Z M 173.703125 84.101562 "/><path style=" stroke:none;fill-rule:nonzero;fill:#41bbdd;fill-opacity:1;" d="M 152.175781 105.460938 L 168.296875 105.460938 L 168.296875 121.582031 L 152.175781 121.582031 Z M 152.175781 105.460938 "/><path style=" stroke:none;fill-rule:nonzero;fill:#41bbdd;fill-opacity:1;" d="M 173.703125 105.460938 L 189.824219 105.460938 L 189.824219 121.582031 L 173.703125 121.582031 Z M 173.703125 105.460938 "/><path style=" stroke:none;fill-rule:nonzero;fill:#41bbdd;fill-opacity:1;" d="M 152.175781 105.460938 L 168.296875 105.460938 L 168.296875 121.582031 L 152.175781 121.582031 Z M 152.175781 105.460938 "/><path style=" stroke:none;fill-rule:nonzero;fill:#41bbdd;fill-opacity:1;" d="M 173.703125 105.460938 L 189.824219 105.460938 L 189.824219 121.582031 L 173.703125 121.582031 Z M 173.703125 105.460938 "/><g style="fill:#41bbdd;fill-opacity:1;"><g transform="translate(402.772731, 246.140005)"><path style="stroke:none" d="M 21.34375 -50.25 C 21.34375 -50.34375 21.316406 -50.429688 21.265625 -50.515625 C 21.222656 -50.609375 21.203125 -50.703125 21.203125 -50.796875 C 21.203125 -52.316406 22.015625 -53.078125 23.640625 -53.078125 C 24.453125 -53.078125 25.351562 -52.675781 26.34375 -51.875 C 31.207031 -47.28125 36.609375 -43.628906 42.546875 -40.921875 C 48.492188 -38.222656 54.976562 -36.875 62 -36.875 C 63.894531 -36.875 66.054688 -37.078125 68.484375 -37.484375 C 70.910156 -37.890625 73.203125 -38.5625 75.359375 -39.5 C 77.523438 -40.445312 79.351562 -41.6875 80.84375 -43.21875 C 82.332031 -44.75 83.078125 -46.6875 83.078125 -49.03125 C 83.078125 -51.644531 82.445312 -53.988281 81.1875 -56.0625 C 79.925781 -58.132812 78.257812 -59.890625 76.1875 -61.328125 C 75.375 -61.867188 74.15625 -62.769531 72.53125 -64.03125 C 70.914062 -65.289062 69.070312 -66.726562 67 -68.34375 C 64.925781 -69.96875 62.765625 -71.703125 60.515625 -73.546875 C 58.265625 -75.390625 56.125 -77.144531 54.09375 -78.8125 C 52.070312 -80.476562 50.25 -81.988281 48.625 -83.34375 C 47.007812 -84.695312 45.796875 -85.734375 44.984375 -86.453125 C 39.671875 -90.410156 35.457031 -94.414062 32.34375 -98.46875 C 29.238281 -102.519531 26.875 -106.75 25.25 -111.15625 C 23.632812 -115.570312 22.601562 -120.144531 22.15625 -124.875 C 21.707031 -129.601562 21.484375 -134.625 21.484375 -139.9375 C 21.484375 -147.863281 23.375 -155.382812 27.15625 -162.5 C 30.9375 -169.613281 36.269531 -175.800781 43.15625 -181.0625 C 50.039062 -186.332031 58.300781 -190.519531 67.9375 -193.625 C 77.570312 -196.738281 88.289062 -198.296875 100.09375 -198.296875 C 101.53125 -198.296875 103.691406 -198.132812 106.578125 -197.8125 C 109.460938 -197.5 112.632812 -196.984375 116.09375 -196.265625 C 119.5625 -195.546875 123.097656 -194.554688 126.703125 -193.296875 C 130.304688 -192.035156 133.59375 -190.414062 136.5625 -188.4375 C 137.550781 -187.71875 138.335938 -186.992188 138.921875 -186.265625 C 139.515625 -185.546875 139.898438 -184.421875 140.078125 -182.890625 C 140.523438 -175.597656 140.882812 -168.414062 141.15625 -161.34375 C 141.425781 -154.28125 141.785156 -146.785156 142.234375 -138.859375 C 142.234375 -137.328125 141.914062 -136.3125 141.28125 -135.8125 C 140.65625 -135.320312 139.847656 -135.078125 138.859375 -135.078125 C 137.867188 -135.078125 137.101562 -135.347656 136.5625 -135.890625 C 133.945312 -138.503906 131.242188 -141.070312 128.453125 -143.59375 C 125.660156 -146.113281 122.734375 -148.335938 119.671875 -150.265625 C 116.617188 -152.203125 113.359375 -153.753906 109.890625 -154.921875 C 106.421875 -156.097656 102.660156 -156.6875 98.609375 -156.6875 C 96.171875 -156.6875 93.738281 -156.484375 91.3125 -156.078125 C 88.882812 -155.671875 86.675781 -154.925781 84.6875 -153.84375 C 82.707031 -152.769531 81.109375 -151.285156 79.890625 -149.390625 C 78.679688 -147.503906 78.078125 -145.117188 78.078125 -142.234375 C 78.078125 -139.171875 78.457031 -136.515625 79.21875 -134.265625 C 79.988281 -132.015625 81.90625 -129.898438 84.96875 -127.921875 L 117.390625 -105.90625 C 123.328125 -101.664062 128.140625 -97.453125 131.828125 -93.265625 C 135.523438 -89.078125 138.410156 -84.910156 140.484375 -80.765625 C 142.554688 -76.628906 143.972656 -72.554688 144.734375 -68.546875 C 145.503906 -64.546875 145.890625 -60.609375 145.890625 -56.734375 C 145.890625 -50.429688 144.851562 -44.488281 142.78125 -38.90625 C 140.707031 -33.320312 137.867188 -28.164062 134.265625 -23.4375 C 130.660156 -18.707031 126.445312 -14.472656 121.625 -10.734375 C 116.8125 -7.003906 111.660156 -3.804688 106.171875 -1.140625 C 100.679688 1.515625 94.984375 3.539062 89.078125 4.9375 C 83.179688 6.332031 77.398438 7.03125 71.734375 7.03125 C 67.316406 7.03125 62.96875 6.960938 58.6875 6.828125 C 54.414062 6.691406 50.253906 6.328125 46.203125 5.734375 C 42.148438 5.148438 38.226562 4.25 34.4375 3.03125 C 30.65625 1.820312 27.054688 0.132812 23.640625 -2.03125 Z M 21.34375 -50.25 "/></g></g><g style="fill:#41bbdd;fill-opacity:1;"><g transform="translate(543.252983, 246.140005)"><path style="stroke:none" d="M 89.015625 -104.140625 C 87.753906 -94.691406 86.5625 -85.257812 85.4375 -75.84375 C 84.3125 -66.4375 83.613281 -57.632812 83.34375 -49.4375 C 83.34375 -45.925781 83.613281 -43 84.15625 -40.65625 C 84.695312 -38.3125 85.484375 -36.460938 86.515625 -35.109375 C 87.554688 -33.765625 88.796875 -32.800781 90.234375 -32.21875 C 91.671875 -31.632812 93.289062 -31.34375 95.09375 -31.34375 C 97.976562 -31.34375 101.128906 -31.769531 104.546875 -32.625 C 107.972656 -33.476562 111.394531 -34.582031 114.8125 -35.9375 C 115.894531 -36.382812 116.816406 -36.71875 117.578125 -36.9375 C 118.347656 -37.164062 119.003906 -37.28125 119.546875 -37.28125 C 120.441406 -37.28125 121.046875 -36.875 121.359375 -36.0625 C 121.679688 -35.25 122 -33.828125 122.3125 -31.796875 C 122.625 -29.773438 123.09375 -27.050781 123.71875 -23.625 C 124.351562 -20.207031 125.394531 -15.890625 126.84375 -10.671875 C 126.925781 -10.222656 126.988281 -9.835938 127.03125 -9.515625 C 127.082031 -9.203125 127.109375 -8.910156 127.109375 -8.640625 C 127.109375 -7.378906 126.632812 -6.476562 125.6875 -5.9375 C 124.738281 -5.40625 123.1875 -4.773438 121.03125 -4.046875 C 117.332031 -2.785156 113.4375 -1.503906 109.34375 -0.203125 C 105.25 1.097656 101.195312 2.289062 97.1875 3.375 C 93.175781 4.457031 89.320312 5.335938 85.625 6.015625 C 81.9375 6.691406 78.703125 7.03125 75.921875 7.03125 C 60.878906 7.03125 49.910156 3.289062 43.015625 -4.1875 C 36.128906 -11.664062 32.6875 -23.054688 32.6875 -38.359375 C 32.6875 -40.972656 32.773438 -43.648438 32.953125 -46.390625 C 33.140625 -49.140625 33.367188 -52.003906 33.640625 -54.984375 C 34.535156 -63.984375 35.320312 -72.507812 36 -80.5625 C 36.675781 -88.625 37.375 -96.347656 38.09375 -103.734375 L 23.90625 -103.734375 C 19.039062 -103.734375 15.523438 -103.9375 13.359375 -104.34375 C 11.203125 -104.75 10.125 -105.582031 10.125 -106.84375 C 10.125 -107.207031 10.570312 -108.175781 11.46875 -109.75 C 12.375 -111.320312 13.523438 -113.210938 14.921875 -115.421875 C 16.316406 -117.628906 17.820312 -119.992188 19.4375 -122.515625 C 21.0625 -125.035156 22.617188 -127.398438 24.109375 -129.609375 C 25.597656 -131.816406 26.878906 -133.726562 27.953125 -135.34375 C 29.035156 -136.96875 29.710938 -137.960938 29.984375 -138.328125 L 39.578125 -138.328125 C 40.390625 -145.171875 41.039062 -150.910156 41.53125 -155.546875 C 42.03125 -160.179688 42.4375 -164.03125 42.75 -167.09375 C 43.0625 -170.15625 43.351562 -172.519531 43.625 -174.1875 C 43.894531 -175.851562 44.1875 -177.085938 44.5 -177.890625 C 44.820312 -178.703125 45.226562 -179.222656 45.71875 -179.453125 C 46.21875 -179.679688 46.875 -179.882812 47.6875 -180.0625 C 51.738281 -180.875 55.65625 -181.613281 59.4375 -182.28125 C 63.21875 -182.957031 67 -183.65625 70.78125 -184.375 C 74.5625 -185.101562 78.410156 -185.9375 82.328125 -186.875 C 86.242188 -187.820312 90.320312 -188.925781 94.5625 -190.1875 C 94.820312 -190.1875 95 -190.207031 95.09375 -190.25 C 95.1875 -190.300781 95.367188 -190.328125 95.640625 -190.328125 C 96.710938 -190.328125 97.25 -189.96875 97.25 -189.25 L 97.25 -188.96875 C 96.800781 -184.019531 96.101562 -177.128906 95.15625 -168.296875 C 94.21875 -159.472656 93.160156 -149.484375 91.984375 -138.328125 L 128.1875 -138.328125 C 128.90625 -138.328125 129.601562 -138.078125 130.28125 -137.578125 C 130.957031 -137.078125 131.296875 -136.242188 131.296875 -135.078125 C 131.296875 -134.628906 130.753906 -133.007812 129.671875 -130.21875 C 128.585938 -127.425781 127.054688 -123.78125 125.078125 -119.28125 L 120.21875 -108.328125 C 119.59375 -106.984375 118.941406 -105.992188 118.265625 -105.359375 C 117.585938 -104.734375 116.210938 -104.328125 114.140625 -104.140625 Z M 89.015625 -104.140625 "/></g></g><g style="fill:#41bbdd;fill-opacity:1;"><g transform="translate(668.064296, 246.140005)"><path style="stroke:none" d="M 154.125 -27.15625 C 154.03125 -26.789062 153.984375 -26.453125 153.984375 -26.140625 C 153.984375 -25.828125 153.984375 -25.535156 153.984375 -25.265625 C 153.984375 -23.003906 154.34375 -21.128906 155.0625 -19.640625 C 155.789062 -18.160156 156.582031 -16.945312 157.4375 -16 C 158.289062 -15.0625 159.078125 -14.296875 159.796875 -13.703125 C 160.515625 -13.117188 160.875 -12.601562 160.875 -12.15625 C 160.875 -10.894531 159.523438 -9.722656 156.828125 -8.640625 L 120.484375 6.890625 C 120.398438 6.984375 120.085938 7.03125 119.546875 7.03125 C 118.828125 7.03125 118.101562 6.394531 117.375 5.125 C 116.65625 3.863281 115.957031 2.265625 115.28125 0.328125 C 114.613281 -1.597656 113.984375 -3.664062 113.390625 -5.875 C 112.804688 -8.082031 112.289062 -10.128906 111.84375 -12.015625 C 106.164062 -5.441406 100.039062 -0.625 93.46875 2.4375 C 86.894531 5.5 80.367188 7.03125 73.890625 7.03125 C 66.328125 7.03125 58.941406 5.363281 51.734375 2.03125 C 44.523438 -1.300781 38.128906 -6.050781 32.546875 -12.21875 C 26.960938 -18.394531 22.484375 -25.847656 19.109375 -34.578125 C 15.734375 -43.316406 14.046875 -53.132812 14.046875 -64.03125 C 14.046875 -76.90625 15.914062 -88.65625 19.65625 -99.28125 C 23.394531 -109.90625 28.457031 -119.046875 34.84375 -126.703125 C 41.238281 -134.359375 48.691406 -140.28125 57.203125 -144.46875 C 65.710938 -148.65625 74.738281 -150.75 84.28125 -150.75 C 91.039062 -150.75 97.4375 -149.375 103.46875 -146.625 C 109.5 -143.875 115.21875 -140.34375 120.625 -136.03125 C 121.164062 -138.726562 121.476562 -140.882812 121.5625 -142.5 C 121.65625 -144.125 121.859375 -145.382812 122.171875 -146.28125 C 122.492188 -147.1875 123.101562 -147.796875 124 -148.109375 C 124.90625 -148.429688 126.390625 -148.679688 128.453125 -148.859375 C 134.941406 -149.753906 141.40625 -150.582031 147.84375 -151.34375 C 154.28125 -152.113281 161.007812 -152.679688 168.03125 -153.046875 Z M 113.734375 -78.078125 C 114.640625 -83.210938 115.25 -88.050781 115.5625 -92.59375 C 115.875 -97.144531 116.117188 -101.3125 116.296875 -105.09375 C 114.859375 -106.175781 113.304688 -107.300781 111.640625 -108.46875 C 109.972656 -109.632812 108.171875 -110.734375 106.234375 -111.765625 C 104.296875 -112.804688 102.269531 -113.640625 100.15625 -114.265625 C 98.039062 -114.898438 95.8125 -115.21875 93.46875 -115.21875 C 88.613281 -115.21875 84.539062 -113.640625 81.25 -110.484375 C 77.957031 -107.335938 75.296875 -103.46875 73.265625 -98.875 C 71.242188 -94.28125 69.804688 -89.414062 68.953125 -84.28125 C 68.097656 -79.15625 67.671875 -74.609375 67.671875 -70.640625 C 67.671875 -56.410156 69.539062 -45.988281 73.28125 -39.375 C 77.019531 -32.757812 82.21875 -29.453125 88.875 -29.453125 C 91.582031 -29.453125 94.601562 -30.21875 97.9375 -31.75 C 101.269531 -33.28125 104.644531 -35.394531 108.0625 -38.09375 Z M 113.734375 -78.078125 "/></g></g><g clip-rule="nonzero" clip-path="url(#248593f45e)"><g style="fill:#41bbdd;fill-opacity:1;"><g transform="translate(835.559968, 246.140005)"><path style="stroke:none" d="M 73.75 61.59375 C 73.570312 61.957031 73.367188 62.25 73.140625 62.46875 C 72.921875 62.695312 72.539062 62.8125 72 62.8125 C 71.457031 62.8125 71.050781 62.765625 70.78125 62.671875 C 67.539062 61.503906 64.476562 60.515625 61.59375 59.703125 C 58.707031 58.890625 55.847656 58.144531 53.015625 57.46875 C 50.179688 56.800781 47.273438 56.171875 44.296875 55.578125 C 41.328125 54.992188 38.175781 54.34375 34.84375 53.625 C 33.945312 53.445312 33.25 53.15625 32.75 52.75 C 32.257812 52.34375 32.015625 51.644531 32.015625 50.65625 C 32.015625 50.382812 32.171875 49.726562 32.484375 48.6875 C 32.796875 47.65625 33.582031 45.539062 34.84375 42.34375 C 36.101562 39.144531 38.039062 34.503906 40.65625 28.421875 C 43.269531 22.347656 46.875 14.179688 51.46875 3.921875 C 50.113281 -0.585938 48.582031 -5.992188 46.875 -12.296875 C 45.164062 -18.597656 43.34375 -25.484375 41.40625 -32.953125 C 39.46875 -40.429688 37.460938 -48.332031 35.390625 -56.65625 C 33.316406 -64.988281 31.222656 -73.410156 29.109375 -81.921875 C 26.992188 -90.429688 24.878906 -98.847656 22.765625 -107.171875 C 20.648438 -115.503906 18.597656 -123.457031 16.609375 -131.03125 C 15.984375 -132.46875 15.625 -133.660156 15.53125 -134.609375 C 15.445312 -135.554688 15.40625 -136.34375 15.40625 -136.96875 C 15.40625 -138.226562 16.125 -139.039062 17.5625 -139.40625 C 24.582031 -140.9375 31.875 -142.53125 39.4375 -144.1875 C 47.007812 -145.851562 54.171875 -147.992188 60.921875 -150.609375 C 61.191406 -150.703125 61.597656 -150.75 62.140625 -150.75 C 63.304688 -150.75 63.9375 -150.296875 64.03125 -149.390625 L 80.5 -58.625 C 80.863281 -59.707031 81.5625 -61.664062 82.59375 -64.5 C 83.632812 -67.332031 84.851562 -70.726562 86.25 -74.6875 C 87.644531 -78.65625 89.195312 -83.023438 90.90625 -87.796875 C 92.613281 -92.566406 94.367188 -97.425781 96.171875 -102.375 C 97.972656 -107.332031 99.75 -112.265625 101.5 -117.171875 C 103.257812 -122.085938 104.90625 -126.660156 106.4375 -130.890625 C 107.96875 -135.117188 109.296875 -138.851562 110.421875 -142.09375 C 111.546875 -145.34375 112.425781 -147.773438 113.0625 -149.390625 C 113.414062 -150.296875 114.09375 -150.75 115.09375 -150.75 C 115.351562 -150.75 115.53125 -150.722656 115.625 -150.671875 C 115.71875 -150.628906 115.898438 -150.609375 116.171875 -150.609375 C 122.921875 -147.992188 129.851562 -145.851562 136.96875 -144.1875 C 144.082031 -142.53125 151.148438 -140.9375 158.171875 -139.40625 C 159.890625 -139.039062 160.75 -138.046875 160.75 -136.421875 C 160.75 -135.253906 160.207031 -133.457031 159.125 -131.03125 L 103.46875 -5.265625 Z M 73.75 61.59375 "/></g></g></g><g style="fill:#435ebe;fill-opacity:1;"><g transform="translate(984.958283, 246.140005)"><path style="stroke:none" d="M 16.890625 -87.265625 C 16.890625 -97.617188 18.082031 -107.546875 20.46875 -117.046875 C 22.851562 -126.546875 26.25 -135.414062 30.65625 -143.65625 C 35.070312 -151.894531 40.410156 -159.367188 46.671875 -166.078125 C 52.929688 -172.785156 59.929688 -178.546875 67.671875 -183.359375 C 75.421875 -188.179688 83.816406 -191.898438 92.859375 -194.515625 C 101.910156 -197.128906 111.4375 -198.4375 121.4375 -198.4375 C 129.363281 -198.4375 136.316406 -197.914062 142.296875 -196.875 C 148.285156 -195.84375 153.507812 -194.535156 157.96875 -192.953125 C 162.425781 -191.378906 166.160156 -189.644531 169.171875 -187.75 C 172.191406 -185.863281 174.695312 -184.066406 176.6875 -182.359375 C 176.59375 -182.359375 176.546875 -182.039062 176.546875 -181.40625 C 176.546875 -180.0625 176.65625 -177.585938 176.875 -173.984375 C 177.101562 -170.378906 177.375 -166.367188 177.6875 -161.953125 C 178.007812 -157.546875 178.28125 -153.066406 178.5 -148.515625 C 178.726562 -143.972656 178.84375 -140.035156 178.84375 -136.703125 C 178.84375 -136.160156 178.660156 -135.550781 178.296875 -134.875 C 177.941406 -134.195312 177.046875 -133.859375 175.609375 -133.859375 C 174.796875 -133.859375 173.800781 -133.992188 172.625 -134.265625 C 170.738281 -134.804688 168.351562 -136.046875 165.46875 -137.984375 C 162.59375 -139.921875 159.238281 -141.945312 155.40625 -144.0625 C 151.582031 -146.175781 147.304688 -148.066406 142.578125 -149.734375 C 137.847656 -151.398438 132.691406 -152.234375 127.109375 -152.234375 C 119.722656 -152.234375 113.015625 -150.675781 106.984375 -147.5625 C 100.953125 -144.457031 95.816406 -140.132812 91.578125 -134.59375 C 87.347656 -129.0625 84.0625 -122.488281 81.71875 -114.875 C 79.375 -107.269531 78.203125 -99.007812 78.203125 -90.09375 C 78.203125 -82.257812 78.921875 -74.921875 80.359375 -68.078125 C 81.804688 -61.234375 83.992188 -55.3125 86.921875 -50.3125 C 89.847656 -45.3125 93.472656 -41.367188 97.796875 -38.484375 C 102.117188 -35.609375 107.207031 -34.171875 113.0625 -34.171875 C 118.738281 -34.171875 125.175781 -35.390625 132.375 -37.828125 L 135.484375 -56.875 L 109.6875 -56.875 C 111.664062 -67.769531 113.375 -76.320312 114.8125 -82.53125 C 116.257812 -88.75 117.613281 -93.429688 118.875 -96.578125 C 120.132812 -99.734375 121.4375 -101.710938 122.78125 -102.515625 C 124.132812 -103.328125 125.710938 -103.734375 127.515625 -103.734375 L 198.5625 -103.734375 C 200.632812 -103.734375 202.144531 -103.597656 203.09375 -103.328125 C 204.039062 -103.066406 204.515625 -102.125 204.515625 -100.5 C 204.515625 -99.6875 204.421875 -98.71875 204.234375 -97.59375 C 204.054688 -96.46875 203.832031 -95.09375 203.5625 -93.46875 L 196.8125 -70.78125 C 196 -67.894531 195.320312 -65.664062 194.78125 -64.09375 C 194.238281 -62.519531 193.5625 -61.347656 192.75 -60.578125 C 191.945312 -59.816406 190.847656 -59.367188 189.453125 -59.234375 C 188.054688 -59.097656 186.050781 -59.03125 183.4375 -59.03125 C 182 -59.03125 181.144531 -58.441406 180.875 -57.265625 C 180.601562 -56.097656 180.375 -54.882812 180.1875 -53.625 C 179.65625 -49.664062 179.117188 -45.726562 178.578125 -41.8125 C 178.035156 -37.894531 177.515625 -34.242188 177.015625 -30.859375 C 176.523438 -27.484375 176.007812 -24.507812 175.46875 -21.9375 C 174.925781 -19.375 174.382812 -17.507812 173.84375 -16.34375 C 167.71875 -12.46875 162.15625 -9.066406 157.15625 -6.140625 C 152.164062 -3.210938 147.191406 -0.785156 142.234375 1.140625 C 137.285156 3.078125 132.0625 4.539062 126.5625 5.53125 C 121.070312 6.53125 114.769531 7.03125 107.65625 7.03125 C 94.957031 7.03125 83.066406 4.734375 71.984375 0.140625 C 60.910156 -4.453125 51.300781 -10.914062 43.15625 -19.25 C 35.007812 -27.582031 28.59375 -37.507812 23.90625 -49.03125 C 19.226562 -60.5625 16.890625 -73.304688 16.890625 -87.265625 Z M 16.890625 -87.265625 "/></g><g transform="translate(1182.576178, 246.140005)"><path style="stroke:none" d="M 90.5 7.03125 C 77.800781 7.03125 66.65625 4.957031 57.0625 0.8125 C 47.476562 -3.332031 39.441406 -8.847656 32.953125 -15.734375 C 26.472656 -22.617188 21.613281 -30.539062 18.375 -39.5 C 15.132812 -48.46875 13.515625 -57.769531 13.515625 -67.40625 C 13.515625 -77.039062 15.085938 -86.203125 18.234375 -94.890625 C 21.390625 -103.578125 25.800781 -111.363281 31.46875 -118.25 C 37.144531 -125.144531 43.941406 -130.910156 51.859375 -135.546875 C 59.785156 -140.179688 68.523438 -143.3125 78.078125 -144.9375 C 79.515625 -145.03125 80.234375 -145.347656 80.234375 -145.890625 C 80.234375 -146.878906 80.117188 -147.800781 79.890625 -148.65625 C 79.671875 -149.507812 79.5625 -150.25 79.5625 -150.875 C 79.5625 -151.875 79.738281 -152.550781 80.09375 -152.90625 C 80.457031 -153.269531 80.863281 -153.453125 81.3125 -153.453125 C 98.519531 -153.453125 113.15625 -151.492188 125.21875 -147.578125 C 137.28125 -143.660156 147.09375 -138.320312 154.65625 -131.5625 C 162.226562 -124.8125 167.722656 -116.84375 171.140625 -107.65625 C 174.566406 -98.46875 176.28125 -88.609375 176.28125 -78.078125 C 176.28125 -64.660156 174.023438 -52.679688 169.515625 -42.140625 C 165.015625 -31.609375 158.867188 -22.691406 151.078125 -15.390625 C 143.296875 -8.097656 134.203125 -2.539062 123.796875 1.28125 C 113.398438 5.113281 102.300781 7.03125 90.5 7.03125 Z M 65.515625 -68.890625 C 65.515625 -64.023438 66.03125 -59.207031 67.0625 -54.4375 C 68.101562 -49.664062 69.816406 -45.34375 72.203125 -41.46875 C 74.585938 -37.59375 77.710938 -34.460938 81.578125 -32.078125 C 85.453125 -29.691406 90.273438 -28.5 96.046875 -28.5 C 100.179688 -28.675781 103.800781 -29.597656 106.90625 -31.265625 C 110.019531 -32.929688 112.703125 -35.09375 114.953125 -37.75 C 117.203125 -40.40625 119.066406 -43.398438 120.546875 -46.734375 C 122.035156 -50.066406 123.207031 -53.507812 124.0625 -57.0625 C 124.925781 -60.625 125.535156 -64.113281 125.890625 -67.53125 C 126.253906 -70.957031 126.4375 -74.066406 126.4375 -76.859375 C 126.4375 -81.546875 125.738281 -86.140625 124.34375 -90.640625 C 122.945312 -95.140625 120.894531 -99.097656 118.1875 -102.515625 C 115.488281 -105.941406 112.132812 -108.710938 108.125 -110.828125 C 104.125 -112.941406 99.507812 -114 94.28125 -114 C 88.882812 -114 84.335938 -112.398438 80.640625 -109.203125 C 76.953125 -106.015625 74.003906 -102.078125 71.796875 -97.390625 C 69.585938 -92.710938 67.988281 -87.78125 67 -82.59375 C 66.007812 -77.414062 65.515625 -72.847656 65.515625 -68.890625 Z M 65.515625 -68.890625 "/></g></g></g></svg>